<svg xmlns="http://www.w3.org/2000/svg" width="960" height="540" viewBox="0 0 960 540" role="img" aria-label="Monitor medium-load node card preview">
  <defs>
    <linearGradient id="page" x1="0" y1="0" x2="1" y2="1">
      <stop offset="0" stop-color="#f7f5ff"/>
      <stop offset="1" stop-color="#edf8fb"/>
    </linearGradient>
    <linearGradient id="ring" x1="0" y1="0" x2="1" y2="1">
      <stop offset="0" stop-color="#86efac"/>
      <stop offset=".45" stop-color="#67e8f9"/>
      <stop offset=".72" stop-color="#fde047"/>
      <stop offset="1" stop-color="#fb7185"/>
    </linearGradient>
    <filter id="shadow" x="-20%" y="-20%" width="140%" height="150%">
      <feDropShadow dx="0" dy="18" stdDeviation="18" flood-color="#4c1d95" flood-opacity=".12"/>
    </filter>
  </defs>
  <rect width="960" height="540" fill="url(#page)"/>
  <rect x="156" y="78" width="648" height="384" rx="18" fill="#ffffff" stroke="#ddd6fe" filter="url(#shadow)"/>
  <g transform="translate(184 108)" font-family="Inter, Arial, sans-serif">
    <circle cx="26" cy="26" r="20" fill="#eef2ff" stroke="#ddd6fe"/>
    <text x="26" y="33" text-anchor="middle" font-size="24">🇯🇵</text>
    <text x="62" y="25" fill="#111827" font-size="24" font-weight="800">Tokyo-01</text>
    <text x="62" y="50" fill="#64748b" font-size="15">日本 / Ubuntu 22.04 / x86_64</text>
    <rect x="486" y="7" width="72" height="28" rx="14" fill="#16a34a"/>
    <text x="522" y="26" text-anchor="middle" fill="#fff" font-size="14" font-weight="800">在线</text>
  </g>
  <line x1="184" y1="184" x2="776" y2="184" stroke="#e9d5ff"/>
  <g transform="translate(202 220)" font-family="Inter, Arial, sans-serif">
    <g>
      <circle cx="80" cy="72" r="54" fill="none" stroke="#ede9fe" stroke-width="14"/>
      <path d="M80 18 A54 54 0 1 1 35 102" fill="none" stroke="url(#ring)" stroke-width="14" stroke-linecap="round"/>
      <text x="80" y="68" text-anchor="middle" fill="#111827" font-size="23" font-weight="850">54%</text>
      <text x="80" y="94" text-anchor="middle" fill="#64748b" font-size="15" font-weight="700">CPU</text>
      <text x="80" y="148" text-anchor="middle" fill="#334155" font-size="14">4核</text>
    </g>
    <g transform="translate(198 0)">
      <circle cx="80" cy="72" r="54" fill="none" stroke="#ede9fe" stroke-width="14"/>
      <path d="M80 18 A54 54 0 1 1 24 72" fill="none" stroke="url(#ring)" stroke-width="14" stroke-linecap="round"/>
      <text x="80" y="68" text-anchor="middle" fill="#111827" font-size="23" font-weight="850">62%</text>
      <text x="80" y="94" text-anchor="middle" fill="#64748b" font-size="15" font-weight="700">RAM</text>
      <text x="80" y="148" text-anchor="middle" fill="#334155" font-size="14">5.0 / 8.0 GB</text>
    </g>
    <g transform="translate(396 0)">
      <circle cx="80" cy="72" r="54" fill="none" stroke="#ede9fe" stroke-width="14"/>
      <path d="M80 18 A54 54 0 1 1 33 99" fill="none" stroke="url(#ring)" stroke-width="14" stroke-linecap="round"/>
      <text x="80" y="68" text-anchor="middle" fill="#111827" font-size="23" font-weight="850">58%</text>
      <text x="80" y="94" text-anchor="middle" fill="#64748b" font-size="15" font-weight="700">Disk</text>
      <text x="80" y="148" text-anchor="middle" fill="#334155" font-size="14">70 / 120 GB</text>
    </g>
  </g>
  <g transform="translate(184 394)" font-family="Inter, Arial, sans-serif">
    <rect width="592" height="44" rx="12" fill="#f5f3ff"/>
    <text x="22" y="28" fill="#475569" font-size="15" font-weight="800">网络速率</text>
    <text x="182" y="28" fill="#0f766e" font-size="15" font-weight="800">上 18.4 MB/s</text>
    <text x="342" y="28" fill="#2563eb" font-size="15" font-weight="800">下 42.7 MB/s</text>
    <text x="492" y="28" fill="#64748b" font-size="15" font-weight="800">7天在线</text>
  </g>
</svg>
