<svg xmlns="http://www.w3.org/2000/svg" width="960" height="540" viewBox="0 0 960 540" role="img" aria-label="Next medium-load node card preview">
  <defs>
    <linearGradient id="page" x1="0" y1="0" x2="1" y2="1">
      <stop offset="0" stop-color="#f4f9fb"/>
      <stop offset="1" stop-color="#ecf4f8"/>
    </linearGradient>
    <linearGradient id="bar" x1="0" y1="0" x2="1" y2="0">
      <stop offset="0" stop-color="#a7f3d0"/>
      <stop offset=".52" stop-color="#67e8f9"/>
      <stop offset="1" stop-color="#0891b2"/>
    </linearGradient>
    <filter id="shadow" x="-20%" y="-20%" width="140%" height="150%">
      <feDropShadow dx="0" dy="18" stdDeviation="20" flood-color="#082f49" flood-opacity=".1"/>
    </filter>
  </defs>
  <rect width="960" height="540" fill="url(#page)"/>
  <rect x="146" y="74" width="668" height="392" rx="16" fill="#ffffff" stroke="#d8edf2" filter="url(#shadow)"/>
  <g transform="translate(178 108)" font-family="Inter, Arial, sans-serif">
    <text x="0" y="26" fill="#111827" font-size="25" font-weight="850">Singapore-Edge</text>
    <text x="0" y="52" fill="#64748b" font-size="15">新加坡 / Debian 12 / Linux 6.8</text>
    <rect x="510" y="6" width="76" height="30" rx="15" fill="#0891b2"/>
    <text x="548" y="26" text-anchor="middle" fill="#fff" font-size="14" font-weight="850">在线</text>
  </g>
  <g transform="translate(178 188)" font-family="Inter, Arial, sans-serif">
    <g>
      <rect width="178" height="92" rx="14" fill="#f8fafc" stroke="#d8edf2"/>
      <text x="18" y="30" fill="#64748b" font-size="14" font-weight="850">CPU</text>
      <text x="18" y="64" fill="#0f172a" font-size="28" font-weight="850">54%</text>
      <rect x="18" y="74" width="142" height="8" rx="4" fill="#e2e8f0"/>
      <rect x="18" y="74" width="77" height="8" rx="4" fill="url(#bar)"/>
    </g>
    <g transform="translate(206 0)">
      <rect width="178" height="92" rx="14" fill="#f8fafc" stroke="#d8edf2"/>
      <text x="18" y="30" fill="#64748b" font-size="14" font-weight="850">内存</text>
      <text x="18" y="64" fill="#0f172a" font-size="28" font-weight="850">62%</text>
      <rect x="18" y="74" width="142" height="8" rx="4" fill="#e2e8f0"/>
      <rect x="18" y="74" width="88" height="8" rx="4" fill="url(#bar)"/>
    </g>
    <g transform="translate(412 0)">
      <rect width="178" height="92" rx="14" fill="#f8fafc" stroke="#d8edf2"/>
      <text x="18" y="30" fill="#64748b" font-size="14" font-weight="850">磁盘</text>
      <text x="18" y="64" fill="#0f172a" font-size="28" font-weight="850">58%</text>
      <rect x="18" y="74" width="142" height="8" rx="4" fill="#e2e8f0"/>
      <rect x="18" y="74" width="82" height="8" rx="4" fill="url(#bar)"/>
    </g>
  </g>
  <g transform="translate(178 312)" font-family="Inter, Arial, sans-serif">
    <rect width="590" height="86" rx="14" fill="#f8fafc" stroke="#d8edf2"/>
    <text x="20" y="34" fill="#475569" font-size="15" font-weight="850">网络速率</text>
    <text x="160" y="34" fill="#0f766e" font-size="16" font-weight="850">上行 18.4 MB/s</text>
    <text x="342" y="34" fill="#0369a1" font-size="16" font-weight="850">下行 42.7 MB/s</text>
    <text x="20" y="66" fill="#475569" font-size="15" font-weight="850">总流量</text>
    <text x="160" y="66" fill="#0f766e" font-size="16" font-weight="850">上传 1.2 TB</text>
    <text x="342" y="66" fill="#0369a1" font-size="16" font-weight="850">下载 3.8 TB</text>
  </g>
</svg>
